<?xml version="1.0" encoding="utf-8"?>
<!-- Generator: Adobe Illustrator 17.0.0, SVG Export Plug-In . SVG Version: 6.00 Build 0)  -->
<!DOCTYPE svg PUBLIC "-//W3C//DTD SVG 1.1//EN" "http://www.w3.org/Graphics/SVG/1.1/DTD/svg11.dtd">
<svg version="1.1"
	 id="NexT" xmlns:dc="http://purl.org/dc/elements/1.1/" xmlns:cc="http://creativecommons.org/ns#" xmlns:rdf="http://www.w3.org/1999/02/22-rdf-syntax-ns#" xmlns:svg="http://www.w3.org/2000/svg"
	 xmlns="http://www.w3.org/2000/svg" xmlns:xlink="http://www.w3.org/1999/xlink" x="0px" y="0px" width="512px" height="512px"
	 viewBox="0 0 512 512" enable-background="new 0 0 512 512" xml:space="preserve">
<path display="none" fill="#3300CC" d="M503.046,505.334H434.23l-49.198-132.027H184.189l-46.396,132.027H68.977L252.693,23h66.637
	L503.046,505.334z M365.726,318.814l-72.864-200.53c-2.287-6.432-4.778-17.642-7.474-33.63h-1.557
	c-2.287,14.533-4.88,25.743-7.784,33.63l-72.241,200.531h161.92V318.814z"/>
<path display="none" fill="#FFFFFF" d="M463.046,485.334H394.23l-49.198-132.027H144.189L97.793,485.334H28.977L212.693,3h66.637
	L463.046,485.334z M325.726,298.814l-72.864-200.53c-2.287-6.432-4.778-17.642-7.474-33.63h-1.557
	c-2.287,14.533-4.88,25.743-7.784,33.63l-72.241,200.531h161.92V298.814z"/>
<polygon fill="none" points="325.726,298.815 325.726,298.814 268.122,140.282 211.011,298.815 "/>
<polygon fill="#3300CC" points="503.046,505.334 319.33,23 286.948,23 463.046,485.334 426.777,485.334 434.23,505.334 "/>
<path fill="#3300CC" d="M268.122,140.282l-15.26-41.998c-2.287-6.432-4.778-17.642-7.474-33.63h-1.557
	c-2.287,14.533-4.88,25.743-7.784,33.63l-72.241,200.531h47.205L268.122,140.282z"/>
<polygon fill="#3300CC" points="144.189,353.307 97.793,485.334 76.595,485.334 68.977,505.334 137.793,505.334 184.189,373.307 
	352.485,373.307 345.032,353.307 "/>
</svg>
